<svg xmlns="http://www.w3.org/2000/svg" width="71" height="71" version="1.1"
    desc="Created with https://tools.webdevpuneet.com/image-to-svg-converter/">
    <path fill="rgb(0,0,0)" stroke="rgb(0,0,0)" stroke-width="1" opacity="0"
        d="M 47 0 L 49 0.5 L 49 21 L 70 21 L 70.5 0 L 71 70.5 L 70 70.5 L 70 23 L 49.5 23 Q 46.8 24.4 48 29 L 65 29 L 65 66 L 29 66 L 29 50 L 23 50 L 23 70.5 L 21 71 L 21 50 L 0.5 50 L 0 48 L 47 48 L 47 0 Z " />
    <path fill="rgb(0,0,0)" stroke="rgb(0,0,0)" stroke-width="1" opacity="0"
        d="M 5 5 L 41 5 L 41 23 L 23 23 L 23 41 L 29 41 L 29 29 L 41 29 L 41 42 L 5 42 L 5 5 Z " />
    <path fill="rgb(36,31,88)" stroke="rgb(36,31,88)" stroke-width="1" opacity="0.9607843137254902"
        d="M 42.5 5 L 43 23.5 L 42 23.5 L 42.5 5 Z " />
    <path fill="rgb(36,31,88)" stroke="rgb(36,31,88)" stroke-width="1" opacity="0.9607843137254902"
        d="M 42.5 29 L 43 41.5 L 42 41.5 L 42.5 29 Z " />
    <path fill="rgb(161,116,42)" stroke="rgb(161,116,42)" stroke-width="1"
        opacity="0.5686274509803921"
        d="M 49 0 L 70 0.5 L 50 1 L 50 19.5 L 51 20.5 L 49 21 L 49 0 Z " />
    <path fill="rgb(161,116,42)" stroke="rgb(161,116,42)" stroke-width="1"
        opacity="0.5686274509803921"
        d="M 0.5 50 L 21 50 L 21 70.5 L 20 70.5 L 20 51 L 0.5 51 L 0.5 50 Z " />
    <path fill="rgb(36,32,87)" stroke="rgb(36,32,87)" stroke-width="1" opacity="0.8156862745098039"
        d="M 0.5 0 L 45 0.5 L 0.5 1 L 0.5 0 Z " />
    <path fill="rgb(36,32,87)" stroke="rgb(36,32,87)" stroke-width="1" opacity="0.8156862745098039"
        d="M 5.5 4 L 42 4.5 L 5 5 L 4.5 42 L 4 5.5 L 5.5 4 Z " />
    <path fill="rgb(36,32,87)" stroke="rgb(36,32,87)" stroke-width="1" opacity="0.8156862745098039"
        d="M 28.5 66 L 65 66.5 L 28.5 67 L 28.5 66 Z " />
    <path fill="rgb(36,32,87)" stroke="rgb(36,32,87)" stroke-width="1" opacity="0.8156862745098039"
        d="M 24.5 70 L 70 70.5 L 24.5 71 L 24.5 70 Z " />
    <path fill="rgb(36,32,87)" stroke="rgb(36,32,87)" stroke-width="1" opacity="0.9372549019607843"
        d="M 27.5 29 L 28 38.5 L 27 38.5 L 27.5 29 Z " />
    <path fill="rgb(36,32,87)" stroke="rgb(36,32,87)" stroke-width="1" opacity="0.9372549019607843"
        d="M 27.5 52 L 28 65.5 L 27 65.5 L 27.5 52 Z " />
    <path fill="rgb(36,32,88)" stroke="rgb(36,32,88)" stroke-width="1" opacity="0.5725490196078431"
        d="M 46.5 0 L 47 46.5 L 46 46.5 L 46.5 0 Z " />
    <path fill="rgb(36,32,88)" stroke="rgb(36,32,88)" stroke-width="1" opacity="0.5725490196078431"
        d="M 23.5 24 L 24 40 L 28 40.5 L 24.5 41 L 23 39.5 L 23.5 24 Z " />
    <path fill="rgb(36,32,88)" stroke="rgb(36,32,88)" stroke-width="1" opacity="0.5725490196078431"
        d="M 28.5 28 L 41 28.5 L 28.5 29 L 28.5 28 Z " />
    <path fill="rgb(36,32,88)" stroke="rgb(36,32,88)" stroke-width="1" opacity="0.5725490196078431"
        d="M 49.5 28 L 64.5 28 L 66 29.5 L 65.5 66 L 65 29 L 49.5 29 L 49.5 28 Z " />
    <path fill="rgb(36,32,88)" stroke="rgb(36,32,88)" stroke-width="1" opacity="0.5725490196078431"
        d="M 5.5 42 L 42 42.5 L 5.5 43 L 5.5 42 Z " />
    <path fill="rgb(36,32,88)" stroke="rgb(36,32,88)" stroke-width="1" opacity="0.5725490196078431"
        d="M 23.5 51 L 24 70.5 L 23 70.5 L 23.5 51 Z " />
    <path fill="rgb(36,31,88)" stroke="rgb(36,31,88)" stroke-width="1" opacity="0.9254901960784314"
        d="M 0.5 2 L 1 44.5 L 0 44.5 L 0.5 2 Z " />
    <path fill="rgb(36,31,88)" stroke="rgb(36,31,88)" stroke-width="1" opacity="0.9254901960784314"
        d="M 42.5 24 L 43 27.5 L 42 27.5 L 42.5 24 Z " />
    <path fill="rgb(36,31,88)" stroke="rgb(36,31,88)" stroke-width="1" opacity="0.9254901960784314"
        d="M 69.5 24 L 70 69.5 L 69 69.5 L 69.5 24 Z " />
    <path fill="rgb(36,31,88)" stroke="rgb(36,31,88)" stroke-width="1" opacity="0.9882352941176471"
        d="M 25.5 24 L 39.5 24 L 41 25.5 L 40.5 27 L 40 25 L 25.5 25 L 25.5 24 Z " />
    <path fill="rgb(36,31,88)" stroke="rgb(36,31,88)" stroke-width="1" opacity="0.9882352941176471"
        d="M 51.5 24 L 68 24.5 L 51.5 25 L 51.5 24 Z " />
    <path fill="rgb(36,32,88)" stroke="rgb(36,32,88)" stroke-width="1" opacity="1"
        d="M 1 1 L 46 1 L 46 47 L 1 47 L 1 1 Z M 4 4 L 4 43 L 43 43 L 43 4 L 4 4 Z " />
    <path fill="rgb(36,32,88)" stroke="rgb(36,32,88)" stroke-width="1" opacity="1"
        d="M 24.5 24 L 25.5 25 L 40 25 L 41 27.5 L 27 28 L 27 39.5 L 24 40 L 24.5 24 Z " />
    <path fill="rgb(36,32,88)" stroke="rgb(36,32,88)" stroke-width="1" opacity="1"
        d="M 50.5 24 L 51.5 25 L 67.5 25 L 69 24.5 L 69 70 L 24 70 L 24 51.5 L 27 51 L 27 67 L 66 67 L 66 28 L 50.5 28 L 50.5 24 Z " />
    <path fill="rgb(159,116,43)" stroke="rgb(159,116,43)" stroke-width="1"
        opacity="0.996078431372549"
        d="M 50 1 L 70 1 L 70 19.5 L 68.5 21 L 51.5 21 L 50 19.5 L 50 1 Z " />
    <path fill="rgb(159,116,43)" stroke="rgb(159,116,43)" stroke-width="1"
        opacity="0.996078431372549" d="M 0 51 L 20 51 L 20 71 L 1.5 71 L 0 69.5 L 0 51 Z " />
    <path fill="rgb(35,31,87)" stroke="rgb(35,31,87)" stroke-width="1" opacity="0.1607843137254902"
        d="M 41.5 5 L 42 41.5 L 41 41.5 L 41 24 L 23.5 24 L 23.5 23 L 41 23 L 41.5 5 Z " />
    <path fill="rgb(35,31,87)" stroke="rgb(35,31,87)" stroke-width="1" opacity="0.1607843137254902"
        d="M 49.5 23 L 70 23.5 L 49 24 L 48.5 29 L 48 24.5 L 49.5 23 Z " />
    <path fill="rgb(35,31,87)" stroke="rgb(35,31,87)" stroke-width="1" opacity="0.1607843137254902"
        d="M 28.5 29 L 29 40.5 L 28 40.5 L 28.5 29 Z " />
    <path fill="rgb(35,31,87)" stroke="rgb(35,31,87)" stroke-width="1" opacity="0.1607843137254902"
        d="M 0.5 47 L 47 47.5 L 0.5 48 L 0.5 47 Z " />
    <path fill="rgb(35,31,87)" stroke="rgb(35,31,87)" stroke-width="1" opacity="0.1607843137254902"
        d="M 23.5 50 L 29 50 L 29 65.5 L 28 65.5 L 28 51.5 Q 28 50.5 23.5 51 L 23.5 50 Z " />
</svg>